# xmcd
#
# Track frame offsets:
#	150
#	14982
#	29076
#	38383
#	47809
#	59001
#	69493
#	89584
#	100661
#	111134
#	128943
#	139893
#	153247
#	162862
#	167613
#	177866
#	187232
#	197616
#	212525
#	224271
#	234748
#	246738
#	256848
#	279968
#
# Disc length: 3929
#
# Revision: 2
# Processed by: cddbd v1.5.1PL0 Copyright (c) Steve Scherf et al.
# Submitted via: audiograbber 1.82.02
# Normalized: r1:DSETVAR1
#
DISCID=670f5718
DTITLE=Various Artist - Memories Collection 50th
DYEAR=2002
DGENRE=
TTITLE0=Ambrossy - Too Many Tears
TTITLE1=Bobby Darin - Mack The Knife
TTITLE2=Brenda Lee - Rock In Around The Christmas Tree
TTITLE3=Buddy Holly - Oh Boy
TTITLE4=Domingo Modugno - Volare
TTITLE5=Eddie Cohrain - Jeannie, Jeannie, Jeannie
TTITLE6=Edith Piaf - Milord
TTITLE7=Fast Domina - Blueberry Hill
TTITLE8=Francie Lane - Sixteen Tons
TTITLE9=Fred Astaire - Singing In The Rain
TTITLE10=George Gibbs - Kiss Of Fire
TTITLE11=Kenny Ball - Midnight At Moscow
TTITLE12=Little Antony and The Imperials - Tears On My Pillow
TTITLE13=Marilyn Monroe - Rinning Wild
TTITLE14=Neil Sedaka - Carol
TTITLE15=Pat Boone - Corinna
TTITLE16=Paul Anka - Diana
TTITLE17=Peggy Lee - Fever
TTITLE18=Platters - Smoke Gets In Your Eyes
TTITLE19=Ritchie Valens - Donna
TTITLE20=Sylvia Syms - I Could Have Danced All Night
TTITLE21=The Andrews Sisters - Tico-Tico
TTITLE22=Tony Sheridan and The Beatles - Ya-Ya
TTITLE23=Glenn Miller Orchestra - Moonlight Serenate
EXTD=
EXTT0=
EXTT1=
EXTT2=
EXTT3=
EXTT4=
EXTT5=
EXTT6=
EXTT7=
EXTT8=
EXTT9=
EXTT10=
EXTT11=
EXTT12=
EXTT13=
EXTT14=
EXTT15=
EXTT16=
EXTT17=
EXTT18=
EXTT19=
EXTT20=
EXTT21=
EXTT22=
EXTT23=
PLAYORDER=
